<svg xmlns="http://www.w3.org/2000/svg" version="1" width="512" height="512" viewBox="0 0 28 27"><path d="M0 1c0 .5.9 1 2 1 1.4 0 2.2 1.1 3 4.2.6 2.4 1.5 5.7 2 7.5.5 1.8.4 3.5-.2 4.1-.5.5-.8 2.7-.6 4.8.3 3.4.6 3.9 3.1 4.2 2.2.3 2.7-.1 2.7-1.7 0-1.8.6-2.1 4.4-2.1 3.5 0 4.5.4 4.9 2 .3 1.3 1.4 2 3 2 2.7 0 3.7-1.4 2.9-4.3-.4-1.5-1.7-1.7-9.3-1.7-4.8 0-9.1-.5-9.4-1-.4-.6 2.5-1 7.9-1h8.5l1.1-3.8c.5-2 1.3-5.4 1.6-7.5l.7-3.7H17.7C8 4 7.1 3.8 6.5 2 6.1.6 5 0 2.9 0 1.3 0 0 .4 0 1zm25.5 6.2c-.2.7-.9 3.2-1.5 5.5L22.9 17H10.2l-1.1-4.4C8.5 10.1 8 7.6 8 7.1 8 6.4 11.3 6 17 6c6.7 0 8.8.3 8.5 1.2z" data-original="#000000" class="active-path" data-old_color="#FFFFFF" fill="#FFFCFC"/></svg>