<svg version="1" xmlns="http://www.w3.org/2000/svg" width="680" height="1194.667" viewBox="0 0 510 896"><path d="M43.5 55.5C28.3 58.8 16.6 67.1 7.8 80.4 2 89.4 0 97 0 110.5s2 21 8.1 30.6c3 4.7 44.7 47 159.7 162.2l155.7 155.8-156.6 156.2C20 761.8 10 771.9 6.7 778.5 1.4 789 0 795 0 806.6c0 8.2.5 11.9 2.5 18.2 10.7 34 51.4 48.5 83.1 29.6 4.8-2.8 44.9-42.4 185.1-182.8C444.3 497.9 449.8 492.3 453.4 485c9.3-18.9 7.9-40.9-3.7-58-2.1-3-83.4-85.3-182-184.1C72 46.7 86.4 60.3 69.4 56c-8.8-2.3-17.2-2.4-25.9-.5z"/></svg>